<svg width="203" height="70" viewBox="0 0 203 70" fill="none" xmlns="http://www.w3.org/2000/svg">
<path d="M24.5404 25.478H37.0285V33.0808H24.5404V25.478Z" fill="#F8AF78"/>
<path fill-rule="evenodd" clip-rule="evenodd" d="M36.5351 25.9697H25.0338V32.5891H36.5351V25.9697ZM24.5404 25.478V33.0808H37.0285V25.478H24.5404Z" fill="black"/>
<path d="M30.7495 31.9128C34.9038 31.9128 36.8394 30.0834 37.2879 29.1687C43.9972 29.1687 51.2275 33.6066 55.1854 42.2416C56.5976 45.6216 56.872 49.5659 57.1772 54.3547L56.0304 55.9809L45.471 56.3827C45.5858 55.3402 45.8615 53.0644 46.0452 52.3016C46.229 51.5387 46.1632 51.5129 46.7501 51.2841C46.5204 50.6484 46.1643 48.7683 45.8275 48.0665C45.4064 47.1892 45.0798 46.0145 43.8932 45.0229C42.9438 44.2295 42.6554 44.1075 42.6299 44.1456L42.4002 44.6033L41.0593 59.5359L37.4134 60.285L30.7495 60.8187L21.863 60.285L18.6192 59.6117L17.8256 44.8018V44.0091L15.6782 48.3153L14.7097 49.7091C15.0576 50.5936 15.3203 51.7327 14.873 52.4685C14.4256 53.2044 14.3546 53.3954 14.0422 53.4166C13.7922 53.4336 11.4227 54.9289 10.8463 55.9881L10.2759 57.1239L5.94865 54.8466C5.24846 53.0811 4.84507 51.3638 4.69697 49.7091C4.36737 48.9634 3.76001 47.3168 3.96743 46.6968C4.17486 46.0768 5.37467 45.5084 5.94865 45.3018L7.13061 42.2017L10.2938 36.9833L13.6988 32.9522C16.9391 30.8149 20.6666 29.4759 24.2111 29.1687C24.6596 30.0834 26.5952 31.9128 30.7495 31.9128Z" fill="white"/>
<path fill-rule="evenodd" clip-rule="evenodd" d="M42.815 44.1113L41.2164 59.6783L40.726 59.6283L42.3246 44.0613L42.815 44.1113ZM18.0024 44.7509L18.5954 59.316L18.1028 59.3359L17.5099 44.7708L18.0024 44.7509Z" fill="black"/>
<path fill-rule="evenodd" clip-rule="evenodd" d="M23.8996 60.5605L11.1665 58.4403L11.2478 57.9558L23.9808 60.076C28.9025 60.8955 33.9331 60.8102 38.8239 59.8243L48.0852 57.9573L48.1829 58.4387L38.9217 60.3057C33.9719 61.3035 28.8806 61.3899 23.8996 60.5605Z" fill="black"/>
<path fill-rule="evenodd" clip-rule="evenodd" d="M46.1495 32.2102C43.3887 30.5832 40.3476 29.7894 36.8011 29.1808L36.8848 28.6963C40.4513 29.3083 43.5626 30.1145 46.4007 31.787C49.2421 33.4614 51.7916 35.9932 54.2572 40.0291C55.7117 42.4101 56.6728 45.6157 57.1072 48.5264C57.3246 49.9835 57.4112 51.3744 57.3596 52.5593C57.3084 53.7364 57.1198 54.7387 56.7651 55.3983L56.6649 55.5847L46.5669 52.0035L46.5359 51.8736C46.4012 51.31 46.3109 50.7787 46.2259 50.279C46.2003 50.1281 46.1751 49.9801 46.1494 49.8349C46.0375 49.2042 45.9137 48.6204 45.6911 48.0447C45.2615 46.9333 44.4503 45.8173 42.5665 44.5L41.5236 45.2554L41.2334 44.8578L42.3165 44.0732V43.0805H42.8099V44.0697C44.7796 45.4392 45.6749 46.6347 46.1516 47.868C46.3918 48.4895 46.5221 49.1114 46.6353 49.7494C46.6622 49.9011 46.6881 50.0534 46.7142 50.207C46.792 50.6643 46.8716 51.1325 46.9856 51.6301L56.4218 54.9766C56.6691 54.4099 56.8217 53.571 56.8667 52.538C56.9166 51.3906 56.8329 50.0318 56.6191 48.5987C56.1908 45.7289 55.2453 42.5921 53.8357 40.2848C51.4027 36.3023 48.907 33.8352 46.1495 32.2102Z" fill="black"/>
<path d="M57.5395 57.0921C56.6811 59.2371 53.3118 59.9139 50.0139 58.6037C46.716 57.2936 44.7383 54.4926 45.5967 52.3476C46.4551 50.2025 49.8244 49.5257 53.1223 50.8359C56.4202 52.146 58.3978 54.947 57.5395 57.0921Z" fill="white"/>
<path fill-rule="evenodd" clip-rule="evenodd" d="M54.594 58.6616C55.8543 58.4085 56.7339 57.7777 57.0811 56.91C57.4284 56.0422 57.2257 54.9815 56.4859 53.9338C55.7492 52.8904 54.5125 51.9175 52.9395 51.2926C51.3665 50.6677 49.7973 50.5259 48.5422 50.778C47.2819 51.0311 46.4023 51.6619 46.0551 52.5296C45.7078 53.3974 45.9105 54.4581 46.6503 55.5058C47.387 56.5492 48.6236 57.5221 50.1966 58.147C51.7696 58.7719 53.3389 58.9137 54.594 58.6616ZM50.0139 58.6037C53.3118 59.9139 56.6811 59.2371 57.5395 57.0921C58.3978 54.947 56.4202 52.146 53.1223 50.8359C49.8244 49.5257 46.4551 50.2025 45.5967 52.3476C44.7383 54.4926 46.716 57.2936 50.0139 58.6037Z" fill="black"/>
<path fill-rule="evenodd" clip-rule="evenodd" d="M14.8957 31.6142C17.2709 29.9614 20.148 29.1871 24.6173 28.5752L24.6844 29.0623C20.2317 29.6719 17.453 30.4343 15.1782 32.0173C12.8995 33.603 11.1001 36.0299 8.65128 40.0384C7.23061 42.3639 6.09052 45.0076 5.46907 47.3672C5.15834 48.5471 4.97899 49.6495 4.95658 50.6015C4.93628 51.4635 5.04512 52.1845 5.2864 52.7265L14.1338 50.5227C14.1095 50.4277 14.0976 50.3337 14.0989 50.2393C14.1016 50.0531 14.1559 49.8849 14.241 49.7254C14.3743 49.4757 14.6039 49.2165 14.8663 48.9203C14.9189 48.861 14.9728 48.8001 15.0275 48.7375C15.696 47.9731 16.6558 46.7802 17.5141 44.4036V43.3285H18.0075V44.3212L19.0906 45.1057L18.8004 45.5034L17.8799 44.8366C17.0208 47.1099 16.071 48.2927 15.3995 49.0605C15.3371 49.1319 15.2784 49.1984 15.2233 49.2608C14.961 49.5576 14.7802 49.7623 14.6766 49.9563C14.6191 50.0642 14.5936 50.1559 14.5923 50.2463C14.591 50.3377 14.6141 50.4467 14.6823 50.5888L14.8126 50.8604L5.02579 53.2982L4.93499 53.1294C4.57854 52.4664 4.43979 51.587 4.46326 50.5899C4.48683 49.5889 4.67448 48.4472 4.99177 47.2425C5.62635 44.8329 6.78635 42.1455 8.22978 39.7827C10.6795 35.7727 12.5243 33.2644 14.8957 31.6142Z" fill="black"/>
<path d="M5.95542 53.5731L10.8879 58.4877C11.6498 59.2469 12.8851 59.2469 13.6471 58.4877C14.409 57.7286 14.409 56.4978 13.6471 55.7386L8.71454 50.824L5.95542 53.5731Z" fill="#E2001A"/>
<path fill-rule="evenodd" clip-rule="evenodd" d="M8.71446 50.4766L13.8214 55.565C14.6797 56.4202 14.6797 57.8067 13.8214 58.6618C12.9632 59.517 11.5716 59.5169 10.7134 58.6618L5.60641 53.5733L8.71446 50.4766ZM6.30425 53.5733L11.0623 58.3141C11.7279 58.9773 12.8069 58.9773 13.4725 58.3141C14.1381 57.651 14.1381 56.5758 13.4725 55.9127L8.71445 51.1719L6.30425 53.5733Z" fill="black"/>
<path d="M20.1102 63.4493L21.2179 65.1064C21.2678 65.1916 21.2161 65.2987 21.1226 65.3182C21.1083 65.3212 21.0934 65.3192 21.0792 65.3153L20.5939 65.1845C20.5854 65.1822 20.5765 65.1811 20.5678 65.1824C20.5063 65.1915 20.4571 65.2396 20.4466 65.3008C20.4453 65.3086 20.4459 65.3166 20.4475 65.3244L20.5577 65.8524C20.5605 65.8654 20.5617 65.8788 20.5588 65.8917C20.538 65.984 20.4312 66.0339 20.3467 65.9847L18.6771 64.8772C18.6532 64.8633 18.634 64.8426 18.6219 64.8178L17.8748 63.4516C17.868 63.4376 17.8589 63.4249 17.8479 63.4139L13.2042 58.7871C12.9851 58.5687 12.9851 58.2147 13.2042 57.9963C13.4234 57.7779 13.7787 57.7779 13.9979 57.9963L18.6415 62.6231C18.6525 62.6341 18.6653 62.6432 18.6793 62.6499L20.0505 63.3943C20.0755 63.4064 20.0962 63.4255 20.1102 63.4493Z" fill="white"/>
<path fill-rule="evenodd" clip-rule="evenodd" d="M13.0299 57.8222C13.3454 57.5078 13.857 57.5078 14.1725 57.8222L18.8048 62.4378L20.1649 63.1761C20.2282 63.2082 20.2814 63.257 20.3187 63.3173L21.4274 64.9759L21.431 64.9821C21.5696 65.2183 21.4247 65.5061 21.1733 65.5586C21.1044 65.5729 21.0461 65.5608 21.015 65.5524L20.7314 65.4759L20.7994 65.8021C20.8054 65.8306 20.8136 65.8834 20.7997 65.9452C20.7438 66.1934 20.4568 66.3332 20.2223 66.1966L20.2161 66.193L18.545 65.0846C18.4845 65.0474 18.4355 64.9944 18.4033 64.9313L17.6622 63.5762L13.0299 58.9606C12.7144 58.6463 12.7144 58.1366 13.0299 57.8222ZM20.5298 65.4216C20.5297 65.4216 20.5296 65.4215 20.5296 65.4215L20.5298 65.4216ZM13.8235 58.1699C13.7007 58.0475 13.5016 58.0475 13.3788 58.1699C13.256 58.2922 13.256 58.4906 13.3788 58.613L18.0225 63.2398C18.0513 63.2685 18.0753 63.3015 18.0937 63.3375L18.8291 64.6823L20.2598 65.6314L20.2061 65.3742C20.2005 65.3474 20.1954 65.3068 20.2035 65.2594C20.2318 65.0933 20.3645 64.9638 20.5315 64.939C20.5844 64.9311 20.6292 64.939 20.6585 64.9469L20.8496 64.9984L19.915 63.6004L18.5653 62.8676C18.5291 62.8493 18.496 62.8254 18.4672 62.7967L13.8235 58.1699Z" fill="black"/>
<path d="M3.27642 47.2191C2.34222 49.3324 4.21889 52.2015 7.46808 53.6274C10.7173 55.0533 14.1086 54.4961 15.0428 52.3827C15.977 50.2694 14.1003 47.4002 10.8511 45.9743C7.60193 44.5484 4.21062 45.1057 3.27642 47.2191Z" fill="white"/>
<path fill-rule="evenodd" clip-rule="evenodd" d="M4.21689 50.4126C3.51491 49.3394 3.35008 48.2722 3.72801 47.4172C4.10594 46.5623 5.0074 45.963 6.27595 45.7546C7.53923 45.547 9.10246 45.7442 10.6522 46.4243C12.202 47.1044 13.4032 48.1204 14.1023 49.1892C14.8043 50.2624 14.9691 51.3296 14.5912 52.1845C14.2132 53.0395 13.3118 53.6387 12.0432 53.8472C10.78 54.0548 9.21674 53.8576 7.66698 53.1775C6.11722 52.4974 4.91596 51.4814 4.21689 50.4126ZM7.46808 53.6274C4.21889 52.2015 2.34222 49.3324 3.27642 47.2191C4.21062 45.1057 7.60193 44.5484 10.8511 45.9743C14.1003 47.4002 15.977 50.2694 15.0428 52.3827C14.1086 54.4961 10.7173 55.0533 7.46808 53.6274Z" fill="black"/>
<path d="M4.48931 47.496L6.38354 49.3818L3.6859 52.0719L1.79167 50.1862C1.0461 49.444 1.04559 48.24 1.79052 47.4972C2.53545 46.7543 3.74374 46.7538 4.48931 47.496Z" fill="#E2001A"/>
<path fill-rule="evenodd" clip-rule="evenodd" d="M3.68616 52.4199L1.61739 50.3604C0.775431 49.5222 0.774848 48.1627 1.61609 47.3238C2.45733 46.4849 3.82184 46.4843 4.6638 47.3225L6.73257 49.382L3.68616 52.4199ZM6.03472 49.3823L4.31503 47.6703C3.66585 47.024 2.61378 47.0245 1.96516 47.6713C1.31654 48.3181 1.31699 49.3664 1.96617 50.0126L3.68586 51.7246L6.03472 49.3823Z" fill="black"/>
<path d="M3.47834 49.1919L2.24847 52.7485C1.84484 53.7172 2.02172 54.3107 2.68708 54.7306C3.35245 55.1504 4.03937 54.4433 4.38631 53.8975C4.08065 54.3784 3.718 55.4087 4.28799 55.8949C4.45474 56.0372 4.66238 56.1346 4.87635 56.1834C5.40987 56.3051 6.08253 56.0403 6.3708 55.5867C6.02386 56.1326 5.59007 56.8386 6.3708 57.3257C7.06153 57.8677 8.00773 57.3844 8.35467 56.8386L6.82578 59.862C6.48591 60.5033 6.50415 61.0802 6.97419 61.3768C7.3674 61.6249 7.91078 61.5869 8.35467 61.0672L11.8293 56.5868L13.3669 54.299C14.4409 52.701 13.9097 50.5294 12.2183 49.6029L8.17338 47.3873C6.38535 46.4079 4.14301 47.2698 3.47834 49.1919Z" fill="#F8AF78"/>
<path fill-rule="evenodd" clip-rule="evenodd" d="M8.05457 47.6028C6.40064 46.6969 4.32648 47.4941 3.71166 49.272L2.47931 52.8358L2.47639 52.8428C2.28447 53.3034 2.24699 53.6375 2.30697 53.8885C2.36494 54.1311 2.52391 54.3367 2.81914 54.523C3.02852 54.6551 3.24047 54.6337 3.46888 54.5023C3.70681 54.3655 3.93263 54.1217 4.10525 53.8749C4.12993 53.8396 4.15325 53.8047 4.17509 53.7705L5.12764 52.1158C5.19543 51.998 5.34621 51.9573 5.46441 52.0248C5.58261 52.0924 5.62347 52.2426 5.55568 52.3604L4.60038 54.0199C4.59859 54.023 4.59673 54.026 4.5948 54.0291C4.57052 54.0673 4.54472 54.1062 4.51751 54.1454C4.38787 54.3805 4.26673 54.7008 4.23573 55.0044C4.20406 55.3146 4.26902 55.5575 4.44737 55.7082C4.58169 55.8217 4.75204 55.903 4.93146 55.9439C5.14084 55.9916 5.39097 55.9653 5.62416 55.8726C5.85691 55.78 6.05055 55.6303 6.1614 55.4569L7.19561 53.7694C7.26662 53.6536 7.41847 53.617 7.53476 53.6877C7.65106 53.7585 7.68776 53.9098 7.61675 54.0257L6.58142 55.7149L6.57929 55.7183C6.57472 55.7255 6.57007 55.7327 6.56535 55.7398L6.56558 55.7399C6.39435 56.0098 6.23135 56.3103 6.18989 56.5858C6.16992 56.7184 6.18007 56.8342 6.22263 56.9349C6.26443 57.0338 6.34568 57.1378 6.5018 57.2352L6.51305 57.2422L6.52349 57.2504C6.77696 57.4493 7.0843 57.4507 7.39752 57.3218C7.71528 57.191 7.99823 56.939 8.1451 56.709L8.98296 55.3346C9.0537 55.2186 9.20545 55.1816 9.32192 55.2521C9.43838 55.3226 9.47544 55.4738 9.4047 55.5898L8.56559 56.9663C8.5652 56.9669 8.56481 56.9675 8.56441 56.9682C8.564 56.9688 8.56358 56.9695 8.56316 56.9702C8.55747 56.9791 8.55166 56.9881 8.54571 56.997L8.54986 56.9991L7.04511 59.9748L7.04401 59.9769C6.88717 60.2728 6.82639 60.5299 6.84227 60.7293C6.85728 60.9176 6.94014 61.0644 7.10624 61.1692C7.25369 61.2622 7.42543 61.2999 7.60145 61.2681C7.77611 61.2366 7.9732 61.133 8.16318 60.9122L11.629 56.4432L13.162 54.1623C14.1554 52.6841 13.6641 50.6754 12.0995 49.8184L8.05457 47.6028ZM7.6093 57.7664C7.60152 57.7697 7.59371 57.773 7.5859 57.7762C7.16997 57.9474 6.66367 57.9792 6.22876 57.6449C6.00575 57.5031 5.85328 57.3278 5.76786 57.1257C5.68179 56.9221 5.67207 56.7109 5.7019 56.5128C5.70978 56.4605 5.72054 56.4083 5.73369 56.3566C5.4433 56.4582 5.12008 56.4913 4.82135 56.4232C4.57282 56.3665 4.32877 56.2526 4.12824 56.0832C3.77373 55.7837 3.7051 55.3436 3.74481 54.9547C3.74641 54.939 3.74819 54.9234 3.75014 54.9077C3.73867 54.9147 3.72713 54.9215 3.71553 54.9282C3.37959 55.1213 2.96398 55.1963 2.55513 54.9383C2.18499 54.7048 1.92284 54.4037 1.82694 54.0024C1.73348 53.6113 1.80823 53.1666 2.01769 52.6614L3.24512 49.1119C3.95965 47.0456 6.37016 46.1191 8.29229 47.1719L12.3372 49.3875C14.1555 50.3835 14.7265 52.718 13.572 54.4358L12.0297 56.7306L8.54639 61.2222L8.54261 61.2266C8.28982 61.5226 7.99468 61.6968 7.6895 61.7519C7.38455 61.807 7.08799 61.7397 6.84223 61.5846C6.5383 61.3928 6.37702 61.1028 6.35037 60.7682C6.32464 60.4453 6.42421 60.0941 6.60652 59.7494L7.6093 57.7664Z" fill="black"/>
<path d="M45.5463 57.6274L44.0207 60.3267C43.5993 61.0723 42.777 61.5012 41.9219 61.4213C41.4178 61.3742 41.1161 60.8399 41.3374 60.3861L43.2327 56.4998C43.4204 56.1149 43.71 55.786 43.9858 55.4579C44.9266 54.3386 46.1966 52.0598 49.983 52.4826C52.8338 52.8009 56.5235 55.7219 55.1083 59.5328C53.9761 62.5816 51.7869 62.9506 50.8338 62.7541C49.9918 63.437 48.9873 63.6547 48.4502 63.6667L46.6717 66.6875C46.3847 67.175 45.7242 67.2836 45.2953 66.9138C44.9758 66.6384 44.8905 66.1807 45.0761 65.8026C46.641 62.6146 48.2306 57.7311 47.3439 57.3606C46.3954 56.9643 45.8905 57.2971 45.5463 57.6274Z" fill="#F8AF78"/>
<path fill-rule="evenodd" clip-rule="evenodd" d="M45.7724 53.193C46.732 52.4992 48.0579 52.0202 50.0105 52.2382C51.4976 52.4043 53.1887 53.2438 54.3305 54.5354C55.4802 55.836 56.0846 57.612 55.3397 59.6181C54.2064 62.67 52.0164 63.1826 50.9 63.0154C50.0708 63.6531 49.1655 63.8801 48.5934 63.9093L46.8846 66.8119C46.5195 67.4319 45.6794 67.57 45.1339 67.0997C44.7265 66.7485 44.6215 66.169 44.8544 65.6945C45.6309 64.1126 46.4143 62.1081 46.8923 60.4569C47.1318 59.6296 47.2911 58.9026 47.3379 58.3664C47.3614 58.0965 47.3548 57.8913 47.3242 57.7513C47.309 57.6822 47.2902 57.6391 47.2742 57.6143C47.2598 57.592 47.2504 57.5881 47.2486 57.5873C46.813 57.4053 46.5056 57.4008 46.2809 57.4593C46.0647 57.5156 45.8957 57.6375 45.7431 57.7801L44.2357 60.4473C43.7665 61.2775 42.851 61.755 41.8989 61.666C41.2233 61.6029 40.8189 60.8868 41.1155 60.2786L43.0107 56.3924C43.1973 56.0098 43.4756 55.6803 43.727 55.3826C43.7505 55.3548 43.7737 55.3273 43.7966 55.3001C43.8931 55.1853 43.9961 55.0536 44.1078 54.9109C44.5137 54.392 45.0342 53.7266 45.7724 53.193ZM48.8732 63.3846C49.3733 63.3026 50.0539 63.0696 50.678 62.5634C51.0786 62.2385 51.4571 61.8002 51.7513 61.214C51.8122 61.0926 51.9604 61.0433 52.0823 61.104C52.2042 61.1648 52.2536 61.3124 52.1926 61.4339C51.9713 61.8748 51.7056 62.243 51.4167 62.5487C52.4046 62.5013 53.9757 61.8744 54.8769 59.4475C55.5471 57.6427 55.0143 56.0527 53.9602 54.8604C52.8984 53.6592 51.3192 52.8791 49.9556 52.7268C48.1217 52.5221 46.9194 52.9711 46.0622 53.5909C45.3868 54.0792 44.9242 54.6694 44.5214 55.1834C44.402 55.3358 44.2878 55.4814 44.1749 55.6157C44.1535 55.6413 44.1321 55.6667 44.1108 55.6919C43.8519 55.999 43.613 56.2824 43.4546 56.6072L41.5593 60.4935C41.4133 60.7929 41.6124 61.1454 41.945 61.1765C42.7031 61.2473 43.4321 60.8671 43.8057 60.206L45.349 57.4753L45.3751 57.4503C45.56 57.2729 45.8089 57.074 46.1561 56.9836C46.507 56.8923 46.9263 56.9195 47.4393 57.1339C47.6614 57.2267 47.7617 57.4427 47.8063 57.6466C47.8523 57.857 47.8548 58.119 47.8295 58.4089C47.7787 58.9921 47.6091 59.7547 47.3664 60.5931C46.88 62.2732 46.0861 64.3044 45.2977 65.9105C45.1594 66.1923 45.2251 66.5282 45.4567 66.7279C45.7691 66.9971 46.25 66.918 46.4589 66.5631L48.2339 63.5482L50.1078 59.9158C50.1701 59.7951 50.3189 59.7475 50.4401 59.8096C50.5613 59.8716 50.609 60.0198 50.5467 60.1406L48.8732 63.3846Z" fill="black"/>
<path fill-rule="evenodd" clip-rule="evenodd" d="M23.6091 29.2842C23.7366 29.1104 23.8499 28.9559 23.9399 28.8218L24.3896 28.9908C24.305 29.6231 24.6074 30.2471 25.2008 30.9209C25.7748 31.5727 26.5805 32.2263 27.452 32.9333C27.48 32.956 27.508 32.9787 27.5361 33.0015C28.4316 33.7282 29.3833 34.5072 30.1644 35.3722C30.9462 36.238 31.5727 37.2063 31.8003 38.3185C31.9259 38.9316 31.9985 40.207 32.0337 41.8595C32.0691 43.5212 32.0667 45.5877 32.0364 47.7992C31.9758 52.2221 31.8033 57.2321 31.5965 60.7563L31.1039 60.7276C31.3102 57.212 31.4825 52.2095 31.543 47.7925C31.5733 45.584 31.5756 43.5237 31.5404 41.8699C31.505 40.2069 31.4318 38.9782 31.3168 38.4167C31.1135 37.4236 30.5484 36.5326 29.7976 35.7011C29.046 34.8688 28.1241 34.1127 27.2245 33.3828C27.1905 33.3552 27.1566 33.3277 27.1227 33.3002C26.2665 32.6057 25.4319 31.9288 24.8299 31.2452C24.3951 30.7515 24.0606 30.2311 23.9355 29.6755C23.334 30.4999 22.5435 31.6116 22.3326 32.9955C22.0805 34.6495 22.6634 36.7494 25.7103 39.18L27.5886 35.341L28.0018 39.0208C28.7258 39.2919 29.4078 40.0603 29.9275 41.4954C30.4882 43.0442 30.8801 45.4195 30.9223 48.9432C30.9379 50.2428 30.9027 52.6181 30.8654 54.9527C30.862 55.1683 30.8585 55.3835 30.855 55.5975C30.8211 57.7049 30.7891 59.6947 30.795 60.7406L30.3016 60.7434C30.2956 59.6917 30.3278 57.6962 30.3616 55.5918C30.3651 55.377 30.3686 55.1611 30.372 54.9449C30.4094 52.6071 30.4444 50.2401 30.4289 48.9491C30.387 45.4511 29.9975 43.1377 29.4633 41.6623C28.9267 40.1804 28.2641 39.5931 27.7095 39.4427L27.5478 39.3988L27.2872 37.079L25.8869 39.941L25.6471 39.756C22.3009 37.1758 21.5509 34.8495 21.8447 32.9217C22.0817 31.3664 23.0041 30.109 23.6091 29.2842Z" fill="black"/>
<path fill-rule="evenodd" clip-rule="evenodd" d="M37.9958 29.4827C37.8532 29.2908 37.7281 29.1226 37.6271 28.9719L37.1752 29.1085C37.1752 29.6137 36.9262 30.1178 36.4757 30.6535C36.0256 31.1885 35.3991 31.7263 34.6928 32.2985C34.5189 32.4394 34.3402 32.5823 34.1585 32.7275C32.8834 33.7469 31.4657 34.8803 30.5646 36.242L30.9766 36.5126C31.8315 35.2208 33.1812 34.1406 34.463 33.1148C34.6453 32.9689 34.8262 32.8241 35.0041 32.68C35.71 32.1081 36.3702 31.5442 36.8539 30.9693C37.1819 30.5793 37.44 30.171 37.572 29.7387C37.5828 29.7532 37.5936 29.7678 37.6045 29.7824C37.6466 29.839 37.6895 29.8966 37.7327 29.9552C37.9269 30.2181 38.1348 30.5071 38.3333 30.8233C38.7307 31.4564 39.0845 32.1895 39.2094 33.0177C39.4489 34.6061 38.858 36.6445 35.8068 39.0751L33.9285 35.236L33.5153 38.9153C32.8034 39.1775 32.0571 39.9108 31.5377 41.2978L32 41.4697C32.5261 40.0647 33.255 39.4876 33.8076 39.3377L33.9694 39.2938L34.2299 36.974L35.6302 39.836L35.87 39.651C39.2122 37.0739 39.979 34.8122 39.6974 32.9446C39.5586 32.0246 39.1683 31.2263 38.7516 30.5626C38.5431 30.2305 38.3265 29.9297 38.1301 29.6638C38.0839 29.6011 38.039 29.5408 37.9958 29.4827Z" fill="black"/>
<path d="M40.2434 15.2042C40.3275 14.1987 39.3955 14.1568 38.9189 14.2616C38.5896 16.0491 38.0527 19.6199 38.5405 19.6032C39.1502 19.5822 39.6968 19.4147 39.8019 18.1787C39.907 16.9428 40.1383 16.461 40.2434 15.2042Z" fill="#F8AF78"/>
<path fill-rule="evenodd" clip-rule="evenodd" d="M39.8905 14.0911C39.5419 13.939 39.1308 13.963 38.8659 14.0212L38.706 14.0564L38.6764 14.2169C38.5111 15.114 38.2933 16.4607 38.178 17.5837C38.1205 18.1433 38.0873 18.6577 38.1011 19.0356C38.1079 19.2215 38.1264 19.3933 38.1679 19.5251C38.1885 19.5903 38.2206 19.6657 38.276 19.7282C38.3377 19.7977 38.4313 19.8526 38.5491 19.8486C38.8666 19.8377 39.2305 19.7889 39.5239 19.5305C39.8183 19.2713 39.9929 18.8458 40.0479 18.1992C40.0989 17.599 40.1801 17.182 40.2635 16.7538L40.265 16.7459C40.3494 16.3122 40.4357 15.8667 40.4894 15.2243C40.5136 14.9352 40.4664 14.6915 40.3529 14.4951C40.239 14.2979 40.0707 14.1697 39.8905 14.0911ZM39.9252 14.7403C39.9778 14.8313 40.0155 14.9699 39.9977 15.1835C39.9463 15.798 39.8644 16.2218 39.7806 16.6522L39.7784 16.6634C39.6948 17.093 39.6095 17.5312 39.5562 18.1577C39.5061 18.7471 39.3548 19.0233 39.1972 19.1621C39.0571 19.2854 38.8737 19.3353 38.6315 19.3522C38.6137 19.2822 38.5998 19.1719 38.5942 19.0178C38.5817 18.6751 38.6119 18.1882 38.6689 17.6337C38.7753 16.5971 38.9714 15.3603 39.1307 14.4761C39.3157 14.4568 39.527 14.4692 39.6926 14.5415C39.7945 14.5859 39.8731 14.6501 39.9252 14.7403Z" fill="black"/>
<path d="M20.8241 15.2538C20.74 14.2483 21.6721 14.2064 22.1486 14.3111C22.478 16.0987 23.0148 19.6695 22.527 19.6528C21.9174 19.6318 21.3707 19.4642 21.2656 18.2283C21.1605 16.9924 20.9292 16.5106 20.8241 15.2538Z" fill="#F8AF78"/>
<path fill-rule="evenodd" clip-rule="evenodd" d="M21.1777 14.1404C21.5263 13.9883 21.9375 14.0123 22.2023 14.0705L22.3623 14.1057L22.3919 14.2662C22.5572 15.1634 22.775 16.51 22.8903 17.633C22.9477 18.1926 22.9809 18.707 22.9672 19.0849C22.9604 19.2708 22.9418 19.4427 22.9003 19.5745C22.8798 19.6397 22.8476 19.715 22.7922 19.7775C22.7305 19.847 22.637 19.902 22.5191 19.8979C22.2017 19.887 21.8377 19.8382 21.5443 19.5798C21.2499 19.3206 21.0753 18.8951 21.0204 18.2485C20.9693 17.6483 20.8881 17.2313 20.8048 16.8031L20.8032 16.7952C20.7188 16.3615 20.6325 15.916 20.5788 15.2737C20.5546 14.9845 20.6019 14.7408 20.7153 14.5444C20.8292 14.3472 20.9976 14.219 21.1777 14.1404ZM21.143 14.7897C21.0905 14.8806 21.0527 15.0192 21.0706 15.2328C21.122 15.8473 21.2039 16.2712 21.2877 16.7016L21.2898 16.7128C21.3735 17.1423 21.4588 17.5805 21.512 18.207C21.5622 18.7964 21.7135 19.0726 21.8711 19.2114C22.0111 19.3347 22.1946 19.3846 22.4368 19.4015C22.4545 19.3315 22.4684 19.2212 22.474 19.0671C22.4865 18.7244 22.4563 18.2375 22.3994 17.683C22.2929 16.6464 22.0969 15.4096 21.9376 14.5254C21.7525 14.5062 21.5412 14.5185 21.3757 14.5908C21.2738 14.6352 21.1951 14.6995 21.143 14.7897Z" fill="black"/>
<path d="M22.5256 3.71025C21.5164 6.70575 21.5164 10.3925 21.6636 12.592C22.1682 15.3571 22.3574 23.2124 22.3574 23.2124C22.8679 27.6675 28.1529 29.4758 30.6618 29.8319C35.9177 29.2454 38.6929 25.5586 38.8611 23.2124C39.0293 20.8663 39.639 13.4299 39.639 10.8743C39.639 8.82983 39.0643 6.88031 38.777 6.16111C39.3488 6.64709 39.688 7.95562 39.7861 8.54913C39.9711 5.164 38.1673 4.35962 37.2422 4.38056C37.0951 2.74665 36.2541 1.57359 34.8035 1.0499C33.643 0.630944 32.0774 0.498276 31.4397 0.484311C32.5665 0.366997 33.7733 0.533192 34.2358 0.630953C31.1664 -0.751588 27.5923 0.421478 25.2166 1.44791C23.3161 2.26906 22.6307 4.21997 22.5256 5.09279V3.71025Z" fill="black"/>
<path d="M24.192 6.87325C22.5437 8.34796 22.384 13.6603 22.5101 16.1321C22.5101 16.8373 22.6615 18.5201 23.5192 20.6149C24.377 22.7096 25.909 22.6398 26.4205 22.2907C27.1606 21.4025 28.2496 21.0199 28.8172 20.8662C28.9686 21.2182 29.511 21.1525 29.7633 21.0757C30.6211 21.4276 31.5363 21.2224 31.8867 21.0757C32.4249 21.2433 32.7277 21.0059 32.8118 20.8662C33.9681 20.971 34.2834 21.9974 35.671 22.4373C37.0586 22.8772 38.32 20.4892 38.6354 18.9181C38.9507 17.3471 38.8666 12.1521 38.341 9.07275C37.9206 6.60932 36.582 5.9376 35.9653 5.90967C35.5869 6.23086 33.9386 6.84811 30.373 6.74756C25.916 6.62188 26.2523 5.02986 24.192 6.87325Z" fill="#F8AF78"/>
<path d="M23.7597 12.2084C23.4926 12.1107 23.3486 11.7808 23.2936 11.5667C23.2804 11.5154 23.303 11.4621 23.3469 11.4323C25.2599 10.1345 27.6305 10.6602 28.6534 11.1162C28.6958 11.1351 28.7249 11.1747 28.7279 11.221C28.7614 11.7317 28.3848 12.0555 28.1352 12.1841C28.0943 12.2052 28.0453 12.1993 28.0065 12.1746C26.3287 11.1093 24.0536 12.136 23.7995 12.2109C23.7861 12.2149 23.7728 12.2132 23.7597 12.2084Z" fill="black"/>
<path d="M37.6012 12.2172C37.8683 12.1195 38.0123 11.7896 38.0673 11.5755C38.0805 11.5242 38.0579 11.4709 38.014 11.4411C36.101 10.1433 33.7304 10.6689 32.7074 11.125C32.6651 11.1439 32.636 11.1835 32.633 11.2298C32.5995 11.7405 32.9761 12.0643 33.2257 12.1929C33.2666 12.214 33.3156 12.2081 33.3544 12.1834C35.0322 11.1181 37.3073 12.1447 37.5613 12.2197C37.5748 12.2237 37.588 12.222 37.6012 12.2172Z" fill="black"/>
<path fill-rule="evenodd" clip-rule="evenodd" d="M21.0683 14.142V12.7176C21.9302 12.5361 24.2555 12.2274 26.6606 12.4453C28.2193 12.5865 28.7099 12.7671 29.0935 12.9083C29.4497 13.0394 29.7136 13.1366 30.6551 13.1366C31.5966 13.1366 31.8605 13.0394 32.2167 12.9083C32.6003 12.7671 33.0909 12.5865 34.6496 12.4453C37.0548 12.2274 39.38 12.5361 40.242 12.7176V14.142C39.9897 14.4144 39.4599 15.0679 39.359 15.5036C39.2328 16.0483 38.6652 18.3316 35.0281 18.143C34.1661 18.1221 32.3328 17.8037 31.8955 16.6977C31.7913 16.4342 31.7017 16.1943 31.621 15.9784C31.2783 15.0615 31.0976 14.578 30.6551 14.561C30.2127 14.578 30.0319 15.0615 29.6893 15.9784C29.6086 16.1943 29.5189 16.4342 29.4147 16.6977C28.9774 17.8037 27.1441 18.1221 26.2822 18.143C22.645 18.3316 22.0774 16.0483 21.9513 15.5036C21.8503 15.0679 21.3205 14.4144 21.0683 14.142ZM22.5611 15.7137C22.3929 14.9428 22.491 14.2892 22.5611 13.975C22.9517 12.7149 25.3 12.881 26.8992 12.9941C27.1077 13.0088 27.3036 13.0227 27.4807 13.0324C29.2124 13.1269 29.6461 14.4359 29.2256 15.7137C28.8052 16.9915 28.2375 17.976 25.6306 17.7875C23.0236 17.5989 22.7713 16.6772 22.5611 15.7137ZM38.8266 13.975C38.8967 14.2892 38.9948 14.9428 38.8266 15.7137C38.6164 16.6772 38.3641 17.5989 35.7572 17.7875C33.1502 17.976 32.5826 16.9915 32.1621 15.7137C31.7416 14.4359 32.1754 13.1269 33.9071 13.0324C34.0841 13.0227 34.28 13.0088 34.4886 12.9941C36.0877 12.881 38.4361 12.7149 38.8266 13.975Z" fill="black"/>
<path d="M28.0836 22.8285C29.3926 23.1361 30.3648 23.1851 30.6567 23.185C30.9489 23.1851 31.9231 23.136 33.2344 22.8274C33.261 22.8211 33.2868 22.8409 33.2855 22.8681C33.2492 23.615 32.575 25.0353 30.6567 25.0353C28.7426 25.0353 28.0672 23.6213 28.0282 22.8731C28.0266 22.8434 28.0547 22.8217 28.0836 22.8285Z" fill="#FF1010"/>
<path d="M28.0836 22.8285C29.3926 23.1361 30.3648 23.1851 30.6567 23.185C30.9489 23.1851 31.9231 23.136 33.2344 22.8274C33.261 22.8211 33.2868 22.8409 33.2855 22.8681C33.2757 23.0691 33.2197 23.319 33.1057 23.5768C33.1019 23.5854 33.0958 23.5924 33.0877 23.597C32.8715 23.7178 32.1064 23.9461 30.6567 23.9461C29.207 23.9461 28.4419 23.7178 28.2257 23.597C28.2176 23.5924 28.2115 23.5854 28.2077 23.5768C28.0947 23.3212 28.0387 23.0735 28.0282 22.8734C28.0267 22.8437 28.0547 22.8217 28.0836 22.8285Z" fill="white"/>
<ellipse cx="26.0294" cy="14.9602" rx="0.861976" ry="0.858851" fill="black"/>
<ellipse cx="26.2606" cy="14.7712" rx="0.294333" ry="0.293605" fill="white"/>
<ellipse cx="35.322" cy="14.9592" rx="0.861976" ry="0.858851" fill="black"/>
<ellipse cx="35.5532" cy="14.7711" rx="0.294333" ry="0.293605" fill="white"/>
<path d="M39.3755 62.0181C39.8013 62.0181 40.1697 62.3144 40.2609 62.7303L41.5775 68.7331C41.7015 69.2985 41.2709 69.8337 40.6921 69.8337L21.7204 69.8337C21.1485 69.8337 20.7195 69.3107 20.8315 68.7499L22.0294 62.7471C22.114 62.3232 22.4861 62.0181 22.9183 62.0181L39.3755 62.0181Z" fill="black"/>
<path d="M39.4297 62.6309C39.6364 62.6309 39.8152 62.7747 39.8594 62.9766L41.1115 68.6885C41.1716 68.9629 40.9627 69.2226 40.6818 69.2226L21.8946 69.2226C21.6168 69.2226 21.4085 68.9682 21.4634 68.6958L22.614 62.9839C22.6554 62.7786 22.8358 62.6309 23.0453 62.6309L39.4297 62.6309Z" fill="white"/>
<path d="M38.1285 62.8984C38.262 62.8984 38.3775 62.9917 38.4054 63.1224L39.5665 68.5414C39.6043 68.7177 39.4699 68.884 39.2895 68.884L23.894 68.884C23.715 68.884 23.5808 68.72 23.6164 68.5445L24.7147 63.1254C24.7415 62.9934 24.8576 62.8984 24.9923 62.8984L38.1285 62.8984Z" fill="black"/>
<path d="M23.1016 65.1172C23.3212 65.1172 23.5002 65.2952 23.5002 65.5148C23.5002 65.7344 23.3212 65.9124 23.1016 65.9124C22.882 65.9124 22.703 65.7344 22.703 65.5148C22.703 65.2952 22.882 65.1172 23.1016 65.1172Z" fill="black"/>
<path d="M83.8472 40.1097L82.9308 36.6857H75.2179L74.3015 40.1097H66.0923L74.607 13.4788H83.5417L92.0564 40.1097H83.8472ZM76.8598 30.5987H81.2889L79.0743 22.4192L76.8598 30.5987Z" fill="#E2001A"/>
<path d="M109.665 40.0717L105.426 31.702H103.517V40.0717H95.8806V13.4408H106.572C109.499 13.4408 111.917 14.3031 113.826 16.0278C115.736 17.7271 116.69 19.9844 116.69 22.7996C116.69 24.3721 116.321 25.7924 115.583 27.0606C114.87 28.3287 113.865 29.3559 112.566 30.1422L117.836 40.0717H109.665ZM103.517 20.4409V25.3866H106.419C107.234 25.412 107.87 25.2091 108.328 24.7779C108.812 24.3468 109.054 23.7381 109.054 22.9518C109.054 22.1656 108.812 21.5569 108.328 21.1257C107.87 20.6692 107.234 20.4409 106.419 20.4409H103.517Z" fill="#E2001A"/>
<path d="M135.82 40.0717L131.581 31.702H129.672V40.0717H122.036V13.4408H132.727C135.654 13.4408 138.072 14.3031 139.981 16.0278C141.891 17.7271 142.845 19.9844 142.845 22.7996C142.845 24.3721 142.476 25.7924 141.738 27.0606C141.025 28.3287 140.02 29.3559 138.721 30.1422L143.991 40.0717H135.82ZM129.672 20.4409V25.3866H132.574C133.389 25.412 134.025 25.2091 134.483 24.7779C134.967 24.3468 135.209 23.7381 135.209 22.9518C135.209 22.1656 134.967 21.5569 134.483 21.1257C134.025 20.6692 133.389 20.4409 132.574 20.4409H129.672Z" fill="#E2001A"/>
<path d="M171.071 36.7238C168.347 39.3869 165 40.7184 161.029 40.7184C157.058 40.7184 153.698 39.3869 150.949 36.7238C148.225 34.0353 146.863 30.7255 146.863 26.7943C146.863 22.863 148.225 19.5659 150.949 16.9028C153.698 14.2143 157.058 12.8701 161.029 12.8701C165 12.8701 168.347 14.2143 171.071 16.9028C173.82 19.5659 175.195 22.863 175.195 26.7943C175.195 30.7255 173.82 34.0353 171.071 36.7238ZM156.333 31.4357C157.58 32.6531 159.145 33.2618 161.029 33.2618C162.913 33.2618 164.465 32.6531 165.687 31.4357C166.935 30.1929 167.558 28.6458 167.558 26.7943C167.558 24.9428 166.935 23.4083 165.687 22.1909C164.465 20.9482 162.913 20.3268 161.029 20.3268C159.145 20.3268 157.58 20.9482 156.333 22.1909C155.111 23.4083 154.5 24.9428 154.5 26.7943C154.5 28.6458 155.111 30.1929 156.333 31.4357Z" fill="#E2001A"/>
<path d="M194.858 13.4788H202.495V40.1097H196.386L187.986 27.9356V40.1097H180.349V13.4788H186.458L194.858 25.6529V13.4788Z" fill="#E2001A"/>
<rect x="66.0791" y="45.1006" width="136.421" height="11.951" rx="5.97551" fill="#276CAA"/>
<path d="M78.2876 54.303C77.6755 54.303 77.1543 54.1641 76.724 53.8863C76.2997 53.6086 76.0027 53.2281 75.833 52.745L76.7331 52.2196C76.9876 52.9322 77.5149 53.2885 78.3149 53.2885C78.7089 53.2885 79.0028 53.213 79.1967 53.062C79.3967 52.905 79.4967 52.7027 79.4967 52.4551C79.4967 52.1955 79.3907 51.9992 79.1786 51.8664C78.9664 51.7275 78.5907 51.5765 78.0513 51.4135C77.7482 51.3229 77.5028 51.2383 77.3149 51.1598C77.127 51.0813 76.927 50.9726 76.7149 50.8337C76.5088 50.6888 76.3543 50.5107 76.2512 50.2993C76.1482 50.088 76.0967 49.8404 76.0967 49.5565C76.0967 48.9949 76.2967 48.5511 76.6967 48.225C77.0967 47.8929 77.5785 47.7268 78.1422 47.7268C78.6513 47.7268 79.0967 47.8506 79.4786 48.0982C79.8604 48.3458 80.1543 48.687 80.3604 49.1218L79.4786 49.629C79.2119 49.0372 78.7664 48.7413 78.1422 48.7413C77.8391 48.7413 77.5967 48.8138 77.4149 48.9587C77.2331 49.0976 77.1422 49.2878 77.1422 49.5294C77.1422 49.7649 77.2331 49.9521 77.4149 50.091C77.6028 50.2238 77.9391 50.3657 78.424 50.5167C78.6664 50.5952 78.8422 50.6556 78.9513 50.6979C79.0664 50.7341 79.224 50.7945 79.424 50.879C79.6301 50.9636 79.7846 51.0481 79.8877 51.1327C79.9907 51.2172 80.0998 51.3229 80.2149 51.4497C80.3362 51.5765 80.421 51.7214 80.4695 51.8845C80.518 52.0475 80.5422 52.2317 80.5422 52.437C80.5422 53.0107 80.3331 53.4666 79.9149 53.8048C79.5028 54.1369 78.9604 54.303 78.2876 54.303Z" fill="white"/>
<path d="M86.0805 53.1889H88.8987V54.1853H85.035V47.8446H88.8533V48.841H86.0805V50.4895H88.626V51.4769H86.0805V53.1889Z" fill="white"/>
<path d="M97.1195 54.1853L95.7741 51.8754H94.5377V54.1853H93.4922V47.8446H96.0377C96.6074 47.8446 97.0892 48.0438 97.4832 48.4424C97.8832 48.8349 98.0832 49.315 98.0832 49.8826C98.0832 50.2872 97.965 50.6586 97.7286 50.9968C97.4983 51.3289 97.1953 51.5705 96.8195 51.7214L98.265 54.1853H97.1195ZM94.5377 48.8228V50.9424H96.0377C96.3165 50.9424 96.5529 50.8398 96.7468 50.6345C96.9407 50.4291 97.0377 50.1785 97.0377 49.8826C97.0377 49.5867 96.9407 49.3361 96.7468 49.1308C96.5529 48.9255 96.3165 48.8228 96.0377 48.8228H94.5377Z" fill="white"/>
<path d="M104.233 54.1853L102.024 47.8446H103.17L104.861 52.9262L106.561 47.8446H107.697L105.488 54.1853H104.233Z" fill="white"/>
<path d="M112.014 47.8446H113.059V54.1853H112.014V47.8446Z" fill="white"/>
<path d="M120.976 54.303C120.019 54.303 119.225 53.989 118.594 53.361C117.964 52.7269 117.649 51.9449 117.649 51.0149C117.649 50.0849 117.964 49.3059 118.594 48.6779C119.225 48.0438 120.019 47.7268 120.976 47.7268C121.552 47.7268 122.082 47.8627 122.567 48.1344C123.058 48.4062 123.44 48.7745 123.713 49.2395L122.804 49.7649C122.634 49.4509 122.385 49.2033 122.058 49.0221C121.737 48.8349 121.376 48.7413 120.976 48.7413C120.297 48.7413 119.746 48.9557 119.322 49.3844C118.903 49.8132 118.694 50.3567 118.694 51.0149C118.694 51.6731 118.903 52.2166 119.322 52.6454C119.746 53.0741 120.297 53.2885 120.976 53.2885C121.376 53.2885 121.74 53.1979 122.067 53.0168C122.394 52.8296 122.64 52.5789 122.804 52.2649L123.713 52.7812C123.446 53.2462 123.067 53.6176 122.576 53.8954C122.091 54.1671 121.558 54.303 120.976 54.303Z" fill="white"/>
<path d="M129.263 53.1889H132.081V54.1853H128.218V47.8446H132.036V48.841H129.263V50.4895H131.809V51.4769H129.263V53.1889Z" fill="white"/>
<path d="M145.593 54.303C144.636 54.303 143.842 53.989 143.211 53.361C142.581 52.7269 142.266 51.9449 142.266 51.0149C142.266 50.0849 142.581 49.3059 143.211 48.6779C143.842 48.0438 144.636 47.7268 145.593 47.7268C146.169 47.7268 146.699 47.8627 147.184 48.1344C147.675 48.4062 148.057 48.7745 148.33 49.2395L147.421 49.7649C147.251 49.4509 147.002 49.2033 146.675 49.0221C146.354 48.8349 145.993 48.7413 145.593 48.7413C144.914 48.7413 144.363 48.9557 143.939 49.3844C143.52 49.8132 143.311 50.3567 143.311 51.0149C143.311 51.6731 143.52 52.2166 143.939 52.6454C144.363 53.0741 144.914 53.2885 145.593 53.2885C145.993 53.2885 146.357 53.1979 146.684 53.0168C147.011 52.8296 147.257 52.5789 147.421 52.2649L148.33 52.7812C148.063 53.2462 147.684 53.6176 147.193 53.8954C146.708 54.1671 146.175 54.303 145.593 54.303Z" fill="white"/>
<path d="M153.88 53.1889H156.698V54.1853H152.835V47.8446H156.653V48.841H153.88V50.4895H156.426V51.4769H153.88V53.1889Z" fill="white"/>
<path d="M165.11 47.8446H166.156V54.1853H165.337L162.337 49.8826V54.1853H161.292V47.8446H162.11L165.11 52.1472V47.8446Z" fill="white"/>
<path d="M175.199 47.8446V48.841H173.408V54.1853H172.363V48.841H170.563V47.8446H175.199Z" fill="white"/>
<path d="M180.654 53.1889H183.473V54.1853H179.609V47.8446H183.427V48.841H180.654V50.4895H183.2V51.4769H180.654V53.1889Z" fill="white"/>
<path d="M191.693 54.1853L190.348 51.8754H189.112V54.1853H188.066V47.8446H190.612C191.181 47.8446 191.663 48.0438 192.057 48.4424C192.457 48.8349 192.657 49.315 192.657 49.8826C192.657 50.2872 192.539 50.6586 192.303 50.9968C192.072 51.3289 191.769 51.5705 191.393 51.7214L192.839 54.1853H191.693ZM189.112 48.8228V50.9424H190.612C190.89 50.9424 191.127 50.8398 191.321 50.6345C191.515 50.4291 191.612 50.1785 191.612 49.8826C191.612 49.5867 191.515 49.3361 191.321 49.1308C191.127 48.9255 190.89 48.8228 190.612 48.8228H189.112Z" fill="white"/>
</svg>
